<svg version="1.1" viewBox="0.0 0.0 344.88188976377955 212.28346456692913" fill="none" stroke="none" stroke-linecap="square" stroke-miterlimit="10" xmlns:xlink="http://www.w3.org/1999/xlink" xmlns="http://www.w3.org/2000/svg"><clipPath id="p.0"><path d="m0 0l344.8819 0l0 212.28346l-344.8819 0l0 -212.28346z" clip-rule="nonzero"/></clipPath><g clip-path="url(#p.0)"><path fill="#000000" fill-opacity="0.0" d="m0 0l344.8819 0l0 212.28346l-344.8819 0z" fill-rule="evenodd"/><path fill="#434343" d="m253.47244 195.50131l0 0c0 -4.6357117 -2.7144928 -8.393707 -6.0629883 -8.393707l0 0c-1.608017 0 -3.1501617 0.8843384 -4.2871857 2.4584656c-1.1370392 1.5741272 -1.7758179 3.7090912 -1.7758179 5.9352417l0 0c0 4.6357117 2.7144928 8.393707 6.0630035 8.393707l0 0c3.3484955 0 6.0629883 -3.7579956 6.0629883 -8.393707z" fill-rule="evenodd"/><path stroke="#000000" stroke-width="1.0" stroke-linejoin="round" stroke-linecap="butt" d="m253.47244 195.50131l0 0c0 -4.6357117 -2.7144928 -8.393707 -6.0629883 -8.393707l0 0c-1.608017 0 -3.1501617 0.8843384 -4.2871857 2.4584656c-1.1370392 1.5741272 -1.7758179 3.7090912 -1.7758179 5.9352417l0 0c0 4.6357117 2.7144928 8.393707 6.0630035 8.393707l0 0c3.3484955 0 6.0629883 -3.7579956 6.0629883 -8.393707z" fill-rule="evenodd"/><path fill="#999999" d="m245.5748 195.50131l0 0c0 -2.8788452 -0.92362976 -5.2126007 -2.0629883 -5.2126007l0 0c-0.5471344 0 -1.0718689 0.5491791 -1.4587555 1.5267334c-0.3868866 0.9775543 -0.6042328 2.3034058 -0.6042328 3.6858673l0 0c0 2.8788452 0.92362976 5.2126007 2.0629883 5.2126007l0 0c1.1393585 0 2.0629883 -2.3337555 2.0629883 -5.2126007z" fill-rule="evenodd"/><path stroke="#000000" stroke-width="1.0" stroke-linejoin="round" stroke-linecap="butt" d="m245.5748 195.50131l0 0c0 -2.8788452 -0.92362976 -5.2126007 -2.0629883 -5.2126007l0 0c-0.5471344 0 -1.0718689 0.5491791 -1.4587555 1.5267334c-0.3868866 0.9775543 -0.6042328 2.3034058 -0.6042328 3.6858673l0 0c0 2.8788452 0.92362976 5.2126007 2.0629883 5.2126007l0 0c1.1393585 0 2.0629883 -2.3337555 2.0629883 -5.2126007z" fill-rule="evenodd"/><path fill="#42b883" d="m94.533104 104.29396l162.63458 0c3.9066162 0 7.6532288 1.5519028 10.415649 4.314308c2.7623901 2.7623978 4.3143005 6.509018 4.3143005 10.415649l0 73.648c0 8.8500977E-4 -7.324219E-4 0.0016021729 -0.0016174316 0.0016021729l-192.09288 -0.0016021729l0 0c-8.773804E-4 0 -0.0015945435 -7.171631E-4 -0.0015945435 -0.0016021729l0.0015945435 -73.6464l0 0c0 -8.135132 6.5948257 -14.729958 14.729958 -14.729958z" fill-rule="evenodd"/><path stroke="#000000" stroke-width="1.0" stroke-linejoin="round" stroke-linecap="butt" d="m94.533104 104.29396l162.63458 0c3.9066162 0 7.6532288 1.5519028 10.415649 4.314308c2.7623901 2.7623978 4.3143005 6.509018 4.3143005 10.415649l0 73.648c0 8.8500977E-4 -7.324219E-4 0.0016021729 -0.0016174316 0.0016021729l-192.09288 -0.0016021729l0 0c-8.773804E-4 0 -0.0015945435 -7.171631E-4 -0.0015945435 -0.0016021729l0.0015945435 -73.6464l0 0c0 -8.135132 6.5948257 -14.729958 14.729958 -14.729958z" fill-rule="evenodd"/><path fill="#42b883" d="m103.1366 70.4042l145.4276 0c1.4980469 0 2.9347382 0.5951004 3.9940186 1.6543808c1.0592804 1.0592804 1.6543884 2.4959793 1.6543884 3.9940262l0 28.241356c0 7.247925E-4 -5.79834E-4 0.0013122559 -0.0013122559 0.0013122559l-156.7231 -0.0013122559l0 0c-7.247925E-4 0 -0.0013046265 -5.79834E-4 -0.0013046265 -0.0013046265l0.0013046265 -28.240051l0 0c0 -3.1195297 2.5288773 -5.648407 5.648407 -5.648407z" fill-rule="evenodd"/><path stroke="#000000" stroke-width="1.0" stroke-linejoin="round" stroke-linecap="butt" d="m103.1366 70.4042l145.4276 0c1.4980469 0 2.9347382 0.5951004 3.9940186 1.6543808c1.0592804 1.0592804 1.6543884 2.4959793 1.6543884 3.9940262l0 28.241356c0 7.247925E-4 -5.79834E-4 0.0013122559 -0.0013122559 0.0013122559l-156.7231 -0.0013122559l0 0c-7.247925E-4 0 -0.0013046265 -5.79834E-4 -0.0013046265 -0.0013046265l0.0013046265 -28.240051l0 0c0 -3.1195297 2.5288773 -5.648407 5.648407 -5.648407z" fill-rule="evenodd"/><path fill="#d0e0e3" d="m114.480316 79.01321l0 0c0 -2.3019562 1.8661041 -4.1680603 4.1680603 -4.1680603l114.40404 0c1.1054382 0 2.1656036 0.4391327 2.9472656 1.2207947c0.781662 0.781662 1.2207947 1.8418274 1.2207947 2.9472656l0 16.671753c0 2.3019562 -1.8661041 4.1680603 -4.1680603 4.1680603l-114.40404 0l0 0c-2.3019562 0 -4.1680603 -1.8661041 -4.1680603 -4.1680603z" fill-rule="evenodd"/><path stroke="#000000" stroke-width="1.0" stroke-linejoin="round" stroke-linecap="butt" d="m114.480316 79.01321l0 0c0 -2.3019562 1.8661041 -4.1680603 4.1680603 -4.1680603l114.40404 0c1.1054382 0 2.1656036 0.4391327 2.9472656 1.2207947c0.781662 0.781662 1.2207947 1.8418274 1.2207947 2.9472656l0 16.671753c0 2.3019562 -1.8661041 4.1680603 -4.1680603 4.1680603l-114.40404 0l0 0c-2.3019562 0 -4.1680603 -1.8661041 -4.1680603 -4.1680603z" fill-rule="evenodd"/><path fill="#42b883" d="m269.83466 112.04724l4.1968384 -16.7874l25.850403 0l-4.196869 16.7874z" fill-rule="evenodd"/><path stroke="#000000" stroke-width="1.0" stroke-linejoin="round" stroke-linecap="butt" d="m269.83466 112.04724l4.1968384 -16.7874l25.850403 0l-4.196869 16.7874z" fill-rule="evenodd"/><path fill="#42b883" d="m81.86614 112.04724l-4.1968536 -16.7874l-25.850391 0l4.19685 16.7874z" fill-rule="evenodd"/><path stroke="#000000" stroke-width="1.0" stroke-linejoin="round" stroke-linecap="butt" d="m81.86614 112.04724l-4.1968536 -16.7874l-25.850391 0l4.19685 16.7874z" fill-rule="evenodd"/><path fill="#b7b7b7" d="m109.81375 130.5643l132.07329 0c1.4061584 0 2.7547302 0.55859375 3.7490387 1.5529022c0.9943085 0.9943085 1.5529022 2.3428802 1.5529022 3.7490387l0 26.509094c0 6.5612793E-4 -5.340576E-4 0.0011749268 -0.0011901855 0.0011749268l-142.67598 -0.0011749268l0 0c-6.5612793E-4 0 -0.0011901855 -5.340576E-4 -0.0011901855 -0.0011901855l0.0011901855 -26.507904l0 0c0 -2.9281769 2.373764 -5.301941 5.301941 -5.301941z" fill-rule="evenodd"/><path stroke="#000000" stroke-width="1.0" stroke-linejoin="round" stroke-linecap="butt" d="m109.81375 130.5643l132.07329 0c1.4061584 0 2.7547302 0.55859375 3.7490387 1.5529022c0.9943085 0.9943085 1.5529022 2.3428802 1.5529022 3.7490387l0 26.509094c0 6.5612793E-4 -5.340576E-4 0.0011749268 -0.0011901855 0.0011749268l-142.67598 -0.0011749268l0 0c-6.5612793E-4 0 -0.0011901855 -5.340576E-4 -0.0011901855 -0.0011901855l0.0011901855 -26.507904l0 0c0 -2.9281769 2.373764 -5.301941 5.301941 -5.301941z" fill-rule="evenodd"/><path fill="#666666" d="m115.309784 135.69817l122.45654 0c0.952301 0 1.8655853 0.3782959 2.5389557 1.0516663c0.67337036 0.67337036 1.0516663 1.5866547 1.0516663 2.5389557l0 17.124344c0 0.45747375 -0.3708496 0.8283386 -0.8283386 0.8283386l-127.98111 0c-0.45748138 0 -0.8283386 -0.37086487 -0.8283386 -0.8283386l0 -17.124344l0 0c0 -1.9830475 1.6075745 -3.590622 3.590622 -3.590622z" fill-rule="evenodd"/><path stroke="#000000" stroke-width="1.0" stroke-linejoin="round" stroke-linecap="butt" d="m115.309784 135.69817l122.45654 0c0.952301 0 1.8655853 0.3782959 2.5389557 1.0516663c0.67337036 0.67337036 1.0516663 1.5866547 1.0516663 2.5389557l0 17.124344c0 0.45747375 -0.3708496 0.8283386 -0.8283386 0.8283386l-127.98111 0c-0.45748138 0 -0.8283386 -0.37086487 -0.8283386 -0.8283386l0 -17.124344l0 0c0 -1.9830475 1.6075745 -3.590622 3.590622 -3.590622z" fill-rule="evenodd"/><path fill="#b7b7b7" d="m112.30708 139.35695l129.03937 0l0 2.6456757l-129.03937 0z" fill-rule="evenodd"/><path stroke="#000000" stroke-width="1.0" stroke-linejoin="round" stroke-linecap="butt" d="m112.30708 139.35695l129.03937 0l0 2.6456757l-129.03937 0z" fill-rule="evenodd"/><path fill="#b7b7b7" d="m111.71916 145.14699l129.63779 0l0 2.6456604l-129.63779 0z" fill-rule="evenodd"/><path stroke="#000000" stroke-width="1.0" stroke-linejoin="round" stroke-linecap="butt" d="m111.71916 145.14699l129.63779 0l0 2.6456604l-129.63779 0z" fill-rule="evenodd"/><path fill="#b7b7b7" d="m112.30708 150.93701l129.03937 0l0 2.6456604l-129.03937 0z" fill-rule="evenodd"/><path stroke="#000000" stroke-width="1.0" stroke-linejoin="round" stroke-linecap="butt" d="m112.30708 150.93701l129.03937 0l0 2.6456604l-129.03937 0z" fill-rule="evenodd"/><path fill="#666666" d="m111.71916 195.50131l0 0c0 -4.6357117 -2.7144928 -8.393707 -6.062996 -8.393707l0 0c-1.6080017 0 -3.1501465 0.8843384 -4.287178 2.4584656c-1.1370316 1.5741272 -1.7758102 3.7090912 -1.7758102 5.9352417l0 0c0 4.6357117 2.7144928 8.393707 6.0629883 8.393707l0 0c3.348503 0 6.062996 -3.7579956 6.062996 -8.393707z" fill-rule="evenodd"/><path fill="#b7b7b7" d="m86.52756 117.42913l0 0c0 -4.9662094 4.025917 -8.992126 8.992126 -8.992126l0 0c2.3848648 0 4.672043 0.9473877 6.358391 2.6337357c1.6863556 1.686348 2.6337357 3.9735336 2.6337357 6.358391l0 0c0 4.966217 -4.0259094 8.992126 -8.992126 8.992126l0 0c-4.9662094 0 -8.992126 -4.0259094 -8.992126 -8.992126z" fill-rule="evenodd"/><path stroke="#000000" stroke-width="1.0" stroke-linejoin="round" stroke-linecap="butt" d="m86.52756 117.42913l0 0c0 -4.9662094 4.025917 -8.992126 8.992126 -8.992126l0 0c2.3848648 0 4.672043 0.9473877 6.358391 2.6337357c1.6863556 1.686348 2.6337357 3.9735336 2.6337357 6.358391l0 0c0 4.966217 -4.0259094 8.992126 -8.992126 8.992126l0 0c-4.9662094 0 -8.992126 -4.0259094 -8.992126 -8.992126z" fill-rule="evenodd"/><path fill="#b7b7b7" d="m247.18898 117.42913l0 0c0 -4.9662094 4.0259094 -8.992126 8.992111 -8.992126l0 0c2.3848572 0 4.672058 0.9473877 6.3583984 2.6337357c1.6863708 1.686348 2.633728 3.9735336 2.633728 6.358391l0 0c0 4.966217 -4.0259094 8.992126 -8.992126 8.992126l0 0c-4.966202 0 -8.992111 -4.0259094 -8.992111 -8.992126z" fill-rule="evenodd"/><path stroke="#000000" stroke-width="1.0" stroke-linejoin="round" stroke-linecap="butt" d="m247.18898 117.42913l0 0c0 -4.9662094 4.0259094 -8.992126 8.992111 -8.992126l0 0c2.3848572 0 4.672058 0.9473877 6.3583984 2.6337357c1.6863708 1.686348 2.633728 3.9735336 2.633728 6.358391l0 0c0 4.966217 -4.0259094 8.992126 -8.992126 8.992126l0 0c-4.966202 0 -8.992111 -4.0259094 -8.992111 -8.992126z" fill-rule="evenodd"/><defs><radialGradient id="p.1" gradientUnits="userSpaceOnUse" gradientTransform="matrix(3.3068262131912354 0.0 0.0 3.3068262131912354 0.0 0.0)" spreadMethod="pad" cx="28.885607794668257" cy="35.51147086630032" fx="28.885607794668257" fy="35.51147086630032" r="3.306826114654541"><stop offset="0.0" stop-color="#ffc002"/><stop offset="1.0" stop-color="#795b04"/></radialGradient></defs><path fill="url(#p.1)" d="m87.7874 117.43026l0 0c0 -4.2704163 3.4618607 -7.732277 7.7322845 -7.732277l0 0c2.0507278 0 4.0174637 0.81464386 5.467552 2.2647324c1.4500809 1.4500809 2.2647324 3.4168167 2.2647324 5.4675446l0 0c0 4.270424 -3.4618607 7.7322845 -7.7322845 7.7322845l0 0c-4.270424 0 -7.7322845 -3.4618607 -7.7322845 -7.7322845z" fill-rule="evenodd"/><path stroke="#000000" stroke-width="1.0" stroke-linejoin="round" stroke-linecap="butt" d="m87.7874 117.43026l0 0c0 -4.2704163 3.4618607 -7.732277 7.7322845 -7.732277l0 0c2.0507278 0 4.0174637 0.81464386 5.467552 2.2647324c1.4500809 1.4500809 2.2647324 3.4168167 2.2647324 5.4675446l0 0c0 4.270424 -3.4618607 7.7322845 -7.7322845 7.7322845l0 0c-4.270424 0 -7.7322845 -3.4618607 -7.7322845 -7.7322845z" fill-rule="evenodd"/><path fill="#434343" d="m99.59318 195.50131l0 0c0 -4.6357117 2.7144928 -8.393707 6.0629883 -8.393707l0 0c1.6080093 0 3.150154 0.8843384 4.2871857 2.4584656c1.1370316 1.5741272 1.7758102 3.7090912 1.7758102 5.9352417l0 0c0 4.6357117 -2.7144928 8.393707 -6.062996 8.393707l0 0c-3.3484955 0 -6.0629883 -3.7579956 -6.0629883 -8.393707z" fill-rule="evenodd"/><path stroke="#000000" stroke-width="1.0" stroke-linejoin="round" stroke-linecap="butt" d="m99.59318 195.50131l0 0c0 -4.6357117 2.7144928 -8.393707 6.0629883 -8.393707l0 0c1.6080093 0 3.150154 0.8843384 4.2871857 2.4584656c1.1370316 1.5741272 1.7758102 3.7090912 1.7758102 5.9352417l0 0c0 4.6357117 -2.7144928 8.393707 -6.062996 8.393707l0 0c-3.3484955 0 -6.0629883 -3.7579956 -6.0629883 -8.393707z" fill-rule="evenodd"/><path fill="#999999" d="m107.490814 195.50131l0 0c0 -2.8788452 0.92362976 -5.2126007 2.0629883 -5.2126007l0 0c0.547142 0 1.0718765 0.5491791 1.4587555 1.5267334c0.3868866 0.9775543 0.6042404 2.3034058 0.6042404 3.6858673l0 0c0 2.8788452 -0.92362976 5.2126007 -2.062996 5.2126007l0 0c-1.1393585 0 -2.0629883 -2.3337555 -2.0629883 -5.2126007z" fill-rule="evenodd"/><path stroke="#000000" stroke-width="1.0" stroke-linejoin="round" stroke-linecap="butt" d="m107.490814 195.50131l0 0c0 -2.8788452 0.92362976 -5.2126007 2.0629883 -5.2126007l0 0c0.547142 0 1.0718765 0.5491791 1.4587555 1.5267334c0.3868866 0.9775543 0.6042404 2.3034058 0.6042404 3.6858673l0 0c0 2.8788452 -0.92362976 5.2126007 -2.062996 5.2126007l0 0c-1.1393585 0 -2.0629883 -2.3337555 -2.0629883 -5.2126007z" fill-rule="evenodd"/><defs><radialGradient id="p.2" gradientUnits="userSpaceOnUse" gradientTransform="matrix(3.3068262131912354 0.0 0.0 3.3068262131912354 0.0 0.0)" spreadMethod="pad" cx="77.47038575546384" cy="35.51147086630032" fx="77.47038575546384" fy="35.51147086630032" r="3.306826114654541"><stop offset="0.0" stop-color="#ffc002"/><stop offset="1.0" stop-color="#795b04"/></radialGradient></defs><path fill="url(#p.2)" d="m248.44882 117.43026l0 0c0 -4.2704163 3.461853 -7.732277 7.7322693 -7.732277l0 0c2.0507507 0 4.0174866 0.81464386 5.46756 2.2647324c1.4500732 1.4500809 2.26474 3.4168167 2.26474 5.4675446l0 0c0 4.270424 -3.461853 7.7322845 -7.7323 7.7322845l0 0c-4.2704163 0 -7.7322693 -3.4618607 -7.7322693 -7.7322845z" fill-rule="evenodd"/><path stroke="#000000" stroke-width="1.0" stroke-linejoin="round" stroke-linecap="butt" d="m248.44882 117.43026l0 0c0 -4.2704163 3.461853 -7.732277 7.7322693 -7.732277l0 0c2.0507507 0 4.0174866 0.81464386 5.46756 2.2647324c1.4500732 1.4500809 2.26474 3.4168167 2.26474 5.4675446l0 0c0 4.270424 -3.461853 7.7322845 -7.7323 7.7322845l0 0c-4.2704163 0 -7.7322693 -3.4618607 -7.7322693 -7.7322845z" fill-rule="evenodd"/><path fill="#f1c232" d="m254.03659 55.231846l9.621185 -11.226257l-0.7661133 14.936455l10.066376 -6.735237l-4.7036133 8.68729l15.090881 0.29216385l-13.341858 7.128231l3.7149048 4.8814316l-5.463928 2.6372147l7.2187805 8.589043l-12.249084 -3.3146133l0.8730774 7.80822l-7.984894 -3.7101974l-1.6420593 7.51606l-5.030304 -3.8058624l-3.3882294 6.0552444l-3.3911133 -4.103195l-7.545456 8.984627l-0.32377625 -8.687294l-10.176239 -1.0729828l5.9120483 -6.347412l-9.626968 -6.445656l11.376007 -3.3223724l-7.9877777 -8.589043l12.142105 -1.1712341l-2.515152 -10.838432l11.7026825 7.128235l3.3882294 -11.621838z" fill-rule="evenodd"/><path stroke="#ffff00" stroke-width="1.0" stroke-linejoin="round" stroke-linecap="butt" d="m254.03659 55.231846l9.621185 -11.226257l-0.7661133 14.936455l10.066376 -6.735237l-4.7036133 8.68729l15.090881 0.29216385l-13.341858 7.128231l3.7149048 4.8814316l-5.463928 2.6372147l7.2187805 8.589043l-12.249084 -3.3146133l0.8730774 7.80822l-7.984894 -3.7101974l-1.6420593 7.51606l-5.030304 -3.8058624l-3.3882294 6.0552444l-3.3911133 -4.103195l-7.545456 8.984627l-0.32377625 -8.687294l-10.176239 -1.0729828l5.9120483 -6.347412l-9.626968 -6.445656l11.376007 -3.3223724l-7.9877777 -8.589043l12.142105 -1.1712341l-2.515152 -10.838432l11.7026825 7.128235l3.3882294 -11.621838z" fill-rule="evenodd"/><path fill="#000000" fill-opacity="0.0" d="m221.38843 57.55695l49.48044 -12.067783l9.951508 40.813797l-49.480423 12.06778z" fill-rule="evenodd"/><path fill="#ffffff" d="m240.18025 73.2847l-8.31488 0.72519684l8.184296 -2.3820572q-0.0048675537 0.8375015 0.13058472 1.6568604zm-0.024932861 -3.5321732l-0.1348877 1.6894455l-8.079773 0.70001984l8.214661 -2.3894653zm0.07713318 3.680275q0.2342987 0.76309204 0.7377777 1.5087814l-8.512222 0.7733154l7.7744446 -2.2820969zm2.896576 2.381485l-9.778473 1.5163956l7.865509 -2.3043137q0.785614 0.4517212 1.9129639 0.7879181zm-1.3463593 -8.292114q-1.1441193 1.2440186 -1.47406 1.9356384l-7.423691 0.62042236l8.897751 -2.5560608zm-8.325241 11.631989l7.2127686 -2.145111l-0.16894531 1.6816635l-7.0438232 0.46344757zm0.12576294 1.8349533l6.9395294 -2.0784683l-0.16894531 1.6816635l-6.770584 0.3968048zm6.961914 -4.625046q1.9096832 0.04890442 3.1240845 -0.2472763q1.2295837 -0.29988098 1.7309113 -0.4864807l-0.01739502 -0.26917267l-1.149231 0.16770172q-1.8811951 0.26581573 -2.8711853 -0.2325592q-0.99368286 -0.5135498 -1.3083038 -1.8038712q-0.12583923 -0.51612854 -0.17503357 -1.1796188q-0.15940857 -2.5665665 0.82551575 -3.8039246q0.98121643 -1.252533 3.3493042 -1.8300858q2.3832703 -0.5812607 4.7061462 -0.5527115l-0.29904175 3.8524323q-1.9297028 0.1328888 -2.8556824 0.3587265q-0.9107971 0.22213745 -1.309555 0.36763763l0.02885437 0.25028992l0.8571167 -0.1125412q1.9948578 -0.2613678 3.0640717 0.2980957q1.0806885 0.54058075 1.40271 1.8612671q0.29981995 1.229599 0.09831238 2.6457977q-0.12187195 0.7534561 -0.3410797 1.3054962q-0.20404053 0.5483322 -0.6424408 0.9929962q-0.4232025 0.44096375 -0.803833 0.7267914q-0.38432312 0.27064514 -0.99967957 0.51721954q-0.82048035 0.32876587 -2.0804138 0.636055q-2.2921906 0.5590439 -4.6946716 0.53382874l0.3605194 -3.9960938zm7.8509674 1.0123367l7.865494 -2.3043137l0.5064087 1.5491333l-8.371902 0.75518036zm-0.5356293 -1.7350006l7.865509 -2.304306l0.5101013 1.5643082l-8.37561 0.73999786zm-2.1239624 -6.8640747l7.895874 -2.3117218l0.47972107 1.5717163l-8.375595 0.7400055zm0.5319214 1.7198105l7.895874 -2.3117142l0.44935608 1.5791168l-8.34523 0.73259735zm-1.0449524 -3.4281464l7.895874 -2.3117218l0.44566345 1.563942l-8.341537 0.74777985zm1.5768585 5.1479645l7.8806915 -2.308014l0.47602844 1.5565338l-8.35672 0.7514801zm0.543396 1.7009354l7.850342 -2.3006134l0.51008606 1.5643082l-8.360428 0.73630524zm10.162643 -10.230572l1.59375 7.4598045l-0.1703186 -0.038879395l0.85357666 -7.976265l4.447754 -1.0847626l-2.024994 13.263771l-5.6318054 1.3735428l-3.637146 -11.882835l4.5691833 -1.1143761z" fill-rule="nonzero"/><path fill="#b7b7b7" d="m82.1339 178.67455l187.43298 0c0.61813354 0 1.210968 0.24555969 1.6480713 0.68266296c0.43710327 0.43710327 0.6826782 1.0299377 0.6826782 1.6480865l0 11.653503c0 8.8500977E-4 -7.324219E-4 0.0016021729 -0.0016174316 0.0016021729l-192.09288 -0.0016021729l0 0c-8.773804E-4 0 -0.0015945435 -7.171631E-4 -0.0015945435 -0.0016021729l0.0015945435 -11.651901l0 0c0 -1.2872467 1.0435181 -2.3307495 2.3307571 -2.3307495z" fill-rule="evenodd"/><path stroke="#000000" stroke-width="1.0" stroke-linejoin="round" stroke-linecap="butt" d="m82.1339 178.67455l187.43298 0c0.61813354 0 1.210968 0.24555969 1.6480713 0.68266296c0.43710327 0.43710327 0.6826782 1.0299377 0.6826782 1.6480865l0 11.653503c0 8.8500977E-4 -7.324219E-4 0.0016021729 -0.0016174316 0.0016021729l-192.09288 -0.0016021729l0 0c-8.773804E-4 0 -0.0015945435 -7.171631E-4 -0.0015945435 -0.0016021729l0.0015945435 -11.651901l0 0c0 -1.2872467 1.0435181 -2.3307495 2.3307571 -2.3307495z" fill-rule="evenodd"/><path fill="#efefef" d="m97.896614 28.963219c0.5657425 -4.289177 -1.2916412 -8.535213 -4.784004 -10.936365c-3.492363 -2.4011526 -8.007217 -2.536315 -11.628761 -0.3481331l0 0c-1.2827911 -2.4940834 -3.6307526 -4.2160826 -6.3336487 -4.6451044c-2.7028885 -0.42902184 -5.443222 0.48532677 -7.392067 2.4664602l0 0c-1.092804 -2.2612562 -3.2385864 -3.7805347 -5.675888 -4.0187073c-2.4373093 -0.23817253 -4.8211937 0.8384695 -6.3057137 2.8478699l0 0c-1.9743614 -2.3967857 -5.115593 -3.405922 -8.06448 -2.5907516c-2.948883 0.81516933 -5.1757812 3.3082352 -5.7171097 6.400442l0 0c-2.4188118 0.68070984 -4.433628 2.4111423 -5.5238953 4.744211c-1.0902672 2.3330708 -1.1490288 5.039913 -0.16110611 7.421173c-2.3820038 3.1982841 -2.9392433 7.460003 -1.4637642 11.1947365c1.4754791 3.7347298 4.762001 6.381363 8.633072 6.9522057c0.027282715 3.5052948 1.8905563 6.72171 4.871624 8.40947c2.9810638 1.6877594 6.6144104 1.583313 9.499554 -0.27308655c1.2289429 4.198189 4.688057 7.287178 8.882866 7.932396c4.194809 0.6452255 8.373299 -1.2689972 10.730186 -4.915634l0 0c2.8890305 1.7974129 6.355644 2.315197 9.617836 1.4365463c3.2621841 -0.87864685 6.045143 -3.079712 7.7210846 -6.1066704l0 0c2.9522095 0.3564415 5.806595 -1.2216187 7.1465454 -3.9510002c1.3399582 -2.7293777 0.88022614 -6.0290604 -1.1510162 -8.26144l0 0c2.6335907 -1.5991745 3.9774094 -4.772476 3.3307114 -7.8651543c-0.646698 -3.092678 -3.1373749 -5.4039135 -6.173233 -5.728487z" fill-rule="evenodd"/><path fill="#efefef" d="m102.768074 78.94227c0 0.81803894 0.6631546 1.4811859 1.4811935 1.4811859c0.81803894 0 1.4811859 -0.663147 1.4811859 -1.4811859c0 -0.81803894 -0.663147 -1.4811935 -1.4811859 -1.4811935c-0.81803894 0 -1.4811935 0.6631546 -1.4811935 1.4811935z" fill-rule="evenodd"/><path fill="#efefef" d="m96.59171 73.472664c0 1.6360779 1.3263016 2.9623795 2.9623795 2.9623795c1.6360779 0 2.9623795 -1.3263016 2.9623795 -2.9623795c0 -1.6360779 -1.3263016 -2.9623795 -2.9623795 -2.9623795c-1.6360779 0 -2.9623795 1.3263016 -2.9623795 2.9623795z" fill-rule="evenodd"/><path fill="#efefef" d="m88.48582 65.755264c0 2.4541168 1.9894485 4.4435654 4.4435654 4.4435654c2.4541168 0 4.443573 -1.9894485 4.443573 -4.4435654c0 -2.4541168 -1.9894562 -4.443573 -4.443573 -4.443573c-2.4541168 0 -4.4435654 1.9894562 -4.4435654 4.443573z" fill-rule="evenodd"/><path fill="#000000" fill-opacity="0.0" d="m96.6084 43.495914l0 0c1.4358673 0.11595535 2.8715744 -0.22636795 4.1143646 -0.98101425m-7.7444687 11.716679c0.5773926 0.23711395 1.1826248 0.3949852 1.800087 0.46953583m-17.310844 4.689003l0 0c0.43426514 -0.67191315 0.7978592 -1.3899117 1.0845795 -2.141758m-21.141914 -3.198967c0.06385803 0.7969513 0.20902252 1.5846863 0.43307114 2.3500557m-9.044231 -16.870308l0 0c-3.2553444 1.6343727 -5.309677 5.051281 -5.280632 8.783108m-7.1752396 -18.137712c0.5271988 1.2707405 1.3320236 2.397997 2.3513794 3.2933903m3.2910843 -15.513651l0 0c-0.08983612 0.5131645 -0.1314125 1.0340405 -0.12415314 1.5554104m15.141205 -3.3697186l0 0c-0.30638504 -0.7175741 -0.71214676 -1.385706 -1.2046585 -1.983593m12.471405 2.9287395l0 0c-0.12499237 -0.59300613 -0.32096863 -1.1676588 -0.5834198 -1.710722m13.806236 2.2919407l0 0c-0.76631165 0.4630165 -1.4752579 1.0203075 -2.1112595 1.6596336m18.146812 11.38402l0 0c0.1672821 -0.57113075 0.29048157 -1.155016 0.3684616 -1.7461891" fill-rule="evenodd"/><path stroke="#000000" stroke-width="1.0" stroke-linejoin="round" stroke-linecap="butt" d="m97.896614 28.963219c0.5657425 -4.289177 -1.2916412 -8.535213 -4.784004 -10.936365c-3.492363 -2.4011526 -8.007217 -2.536315 -11.628761 -0.3481331l0 0c-1.2827911 -2.4940834 -3.6307526 -4.2160826 -6.3336487 -4.6451044c-2.7028885 -0.42902184 -5.443222 0.48532677 -7.392067 2.4664602l0 0c-1.092804 -2.2612562 -3.2385864 -3.7805347 -5.675888 -4.0187073c-2.4373093 -0.23817253 -4.8211937 0.8384695 -6.3057137 2.8478699l0 0c-1.9743614 -2.3967857 -5.115593 -3.405922 -8.06448 -2.5907516c-2.948883 0.81516933 -5.1757812 3.3082352 -5.7171097 6.400442l0 0c-2.4188118 0.68070984 -4.433628 2.4111423 -5.5238953 4.744211c-1.0902672 2.3330708 -1.1490288 5.039913 -0.16110611 7.421173c-2.3820038 3.1982841 -2.9392433 7.460003 -1.4637642 11.1947365c1.4754791 3.7347298 4.762001 6.381363 8.633072 6.9522057c0.027282715 3.5052948 1.8905563 6.72171 4.871624 8.40947c2.9810638 1.6877594 6.6144104 1.583313 9.499554 -0.27308655c1.2289429 4.198189 4.688057 7.287178 8.882866 7.932396c4.194809 0.6452255 8.373299 -1.2689972 10.730186 -4.915634l0 0c2.8890305 1.7974129 6.355644 2.315197 9.617836 1.4365463c3.2621841 -0.87864685 6.045143 -3.079712 7.7210846 -6.1066704l0 0c2.9522095 0.3564415 5.806595 -1.2216187 7.1465454 -3.9510002c1.3399582 -2.7293777 0.88022614 -6.0290604 -1.1510162 -8.26144l0 0c2.6335907 -1.5991745 3.9774094 -4.772476 3.3307114 -7.8651543c-0.646698 -3.092678 -3.1373749 -5.4039135 -6.173233 -5.728487z" fill-rule="evenodd"/><path stroke="#000000" stroke-width="1.0" stroke-linejoin="round" stroke-linecap="butt" d="m102.768074 78.94227c0 0.81803894 0.6631546 1.4811859 1.4811935 1.4811859c0.81803894 0 1.4811859 -0.663147 1.4811859 -1.4811859c0 -0.81803894 -0.663147 -1.4811935 -1.4811859 -1.4811935c-0.81803894 0 -1.4811935 0.6631546 -1.4811935 1.4811935z" fill-rule="evenodd"/><path stroke="#000000" stroke-width="1.0" stroke-linejoin="round" stroke-linecap="butt" d="m96.59171 73.472664c0 1.6360779 1.3263016 2.9623795 2.9623795 2.9623795c1.6360779 0 2.9623795 -1.3263016 2.9623795 -2.9623795c0 -1.6360779 -1.3263016 -2.9623795 -2.9623795 -2.9623795c-1.6360779 0 -2.9623795 1.3263016 -2.9623795 2.9623795z" fill-rule="evenodd"/><path stroke="#000000" stroke-width="1.0" stroke-linejoin="round" stroke-linecap="butt" d="m88.48582 65.755264c0 2.4541168 1.9894485 4.4435654 4.4435654 4.4435654c2.4541168 0 4.443573 -1.9894485 4.443573 -4.4435654c0 -2.4541168 -1.9894562 -4.443573 -4.443573 -4.443573c-2.4541168 0 -4.4435654 1.9894562 -4.4435654 4.443573z" fill-rule="evenodd"/><path stroke="#000000" stroke-width="1.0" stroke-linejoin="round" stroke-linecap="butt" d="m96.6084 43.495914l0 0c1.4358673 0.11595535 2.8715744 -0.22636795 4.1143646 -0.98101425m-7.7444687 11.716679c0.5773926 0.23711395 1.1826248 0.3949852 1.800087 0.46953583m-17.310844 4.689003l0 0c0.43426514 -0.67191315 0.7978592 -1.3899117 1.0845795 -2.141758m-21.141914 -3.198967c0.06385803 0.7969513 0.20902252 1.5846863 0.43307114 2.3500557m-9.044231 -16.870308l0 0c-3.2553444 1.6343727 -5.309677 5.051281 -5.280632 8.783108m-7.1752396 -18.137712c0.5271988 1.2707405 1.3320236 2.397997 2.3513794 3.2933903m3.2910843 -15.513651l0 0c-0.08983612 0.5131645 -0.1314125 1.0340405 -0.12415314 1.5554104m15.141205 -3.3697186l0 0c-0.30638504 -0.7175741 -0.71214676 -1.385706 -1.2046585 -1.983593m12.471405 2.9287395l0 0c-0.12499237 -0.59300613 -0.32096863 -1.1676588 -0.5834198 -1.710722m13.806236 2.2919407l0 0c-0.76631165 0.4630165 -1.4752579 1.0203075 -2.1112595 1.6596336m18.146812 11.38402l0 0c0.1672821 -0.57113075 0.29048157 -1.155016 0.3684616 -1.7461891" fill-rule="evenodd"/><path fill="#000000" d="m61.25741 39.733322q0 -0.28125 0 -0.421875q0 -0.828125 0.234375 -1.421875q0.171875 -0.453125 0.546875 -0.921875q0.28125 -0.328125 1.015625 -0.96875q0.734375 -0.65625 0.953125 -1.03125q0.21875 -0.390625 0.21875 -0.84375q0 -0.8125 -0.640625 -1.4375q-0.640625 -0.625 -1.578125 -0.625q-0.890625 0 -1.5 0.5625q-0.59375 0.5625 -0.78125 1.765625l-1.453125 -0.171875q0.203125 -1.609375 1.15625 -2.453125q0.96875 -0.859375 2.5625 -0.859375q1.671875 0 2.671875 0.921875q1.0 0.90625 1.0 2.203125q0 0.75 -0.359375 1.390625q-0.34375 0.625 -1.359375 1.53125q-0.6875 0.609375 -0.90625 0.90625q-0.203125 0.28125 -0.3125 0.65625q-0.09375 0.375 -0.109375 1.21875l-1.359375 0zm-0.078125 2.828125l0 -1.609375l1.59375 0l0 1.609375l-1.59375 0zm8.9765625 -2.828125q0 -0.28125 0 -0.421875q0 -0.828125 0.234375 -1.421875q0.171875 -0.453125 0.546875 -0.921875q0.28125 -0.328125 1.015625 -0.96875q0.734375 -0.65625 0.953125 -1.03125q0.21875 -0.390625 0.21875 -0.84375q0 -0.8125 -0.640625 -1.4375q-0.640625 -0.625 -1.578125 -0.625q-0.890625 0 -1.5 0.5625q-0.59375 0.5625 -0.78125 1.765625l-1.453125 -0.171875q0.203125 -1.609375 1.15625 -2.453125q0.96875 -0.859375 2.5625 -0.859375q1.671875 0 2.671875 0.921875q1.0 0.90625 1.0 2.203125q0 0.75 -0.359375 1.390625q-0.34375 0.625 -1.359375 1.53125q-0.6875 0.609375 -0.90625 0.90625q-0.203125 0.28125 -0.3125 0.65625q-0.09375 0.375 -0.109375 1.21875l-1.359375 0zm-0.078125 2.828125l0 -1.609375l1.59375 0l0 1.609375l-1.59375 0zm8.9765625 -2.828125q0 -0.28125 0 -0.421875q0 -0.828125 0.234375 -1.421875q0.171875 -0.453125 0.546875 -0.921875q0.28125 -0.328125 1.015625 -0.96875q0.734375 -0.65625 0.953125 -1.03125q0.21875 -0.390625 0.21875 -0.84375q0 -0.8125 -0.640625 -1.4375q-0.640625 -0.625 -1.578125 -0.625q-0.890625 0 -1.5 0.5625q-0.59375 0.5625 -0.78125 1.765625l-1.453125 -0.171875q0.203125 -1.609375 1.15625 -2.453125q0.96875 -0.859375 2.5625 -0.859375q1.671875 0 2.671875 0.921875q1.0 0.90625 1.0 2.203125q0 0.75 -0.359375 1.390625q-0.34375 0.625 -1.359375 1.53125q-0.6875 0.609375 -0.90625 0.90625q-0.203125 0.28125 -0.3125 0.65625q-0.09375 0.375 -0.109375 1.21875l-1.359375 0zm-0.078125 2.828125l0 -1.609375l1.59375 0l0 1.609375l-1.59375 0z" fill-rule="nonzero"/></g></svg>